<svg width="55" height="50" viewBox="0 0 55 50" fill="none" xmlns="http://www.w3.org/2000/svg">
<g clip-path="url(#clip0_6_285)" filter="url(#filter0_dd_6_285)">
<path d="M31.4167 21.5417H45.125V11.75H31.4167V21.5417ZM38.2708 19.0938L33.375 15.6667V13.7083L38.2708 17.1354L43.1667 13.7083V15.6667L38.2708 19.0938ZM7.91667 41.125C6.83958 41.125 5.91753 40.7415 5.15052 39.9745C4.38351 39.2075 4 38.2854 4 37.2083V9.79167C4 8.71458 4.38351 7.79253 5.15052 7.02552C5.91753 6.25851 6.83958 5.875 7.91667 5.875H47.0833C48.1604 5.875 49.0825 6.25851 49.8495 7.02552C50.6165 7.79253 51 8.71458 51 9.79167V37.2083C51 38.2854 50.6165 39.2075 49.8495 39.9745C49.0825 40.7415 48.1604 41.125 47.0833 41.125H7.91667ZM35.1375 37.2083H47.0833V9.79167H7.91667V37.2083H8.1125C9.48333 34.7604 11.3764 32.8429 13.7917 31.4557C16.2069 30.0686 18.8181 29.375 21.625 29.375C24.4319 29.375 27.0431 30.0686 29.4583 31.4557C31.8736 32.8429 33.7667 34.7604 35.1375 37.2083ZM21.625 27.4167C23.2569 27.4167 24.6441 26.8455 25.7865 25.7031C26.9288 24.5608 27.5 23.1736 27.5 21.5417C27.5 19.9097 26.9288 18.5226 25.7865 17.3802C24.6441 16.2378 23.2569 15.6667 21.625 15.6667C19.9931 15.6667 18.6059 16.2378 17.4635 17.3802C16.3212 18.5226 15.75 19.9097 15.75 21.5417C15.75 23.1736 16.3212 24.5608 17.4635 25.7031C18.6059 26.8455 19.9931 27.4167 21.625 27.4167ZM12.9104 37.2083H30.3396C29.2299 35.9681 27.9161 35.0052 26.3984 34.3198C24.8807 33.6344 23.2896 33.2917 21.625 33.2917C19.9604 33.2917 18.3774 33.6344 16.876 34.3198C15.3747 35.0052 14.0528 35.9681 12.9104 37.2083ZM21.625 23.5C21.0701 23.5 20.605 23.3123 20.2297 22.937C19.8543 22.5616 19.6667 22.0965 19.6667 21.5417C19.6667 20.9868 19.8543 20.5217 20.2297 20.1464C20.605 19.771 21.0701 19.5833 21.625 19.5833C22.1799 19.5833 22.645 19.771 23.0203 20.1464C23.3957 20.5217 23.5833 20.9868 23.5833 21.5417C23.5833 22.0965 23.3957 22.5616 23.0203 22.937C22.645 23.3123 22.1799 23.5 21.625 23.5Z" fill="#C92020"/>
</g>
<defs>
<filter id="filter0_dd_6_285" x="0" y="0" width="55" height="55" filterUnits="userSpaceOnUse" color-interpolation-filters="sRGB">
<feFlood flood-opacity="0" result="BackgroundImageFix"/>
<feColorMatrix in="SourceAlpha" type="matrix" values="0 0 0 0 0 0 0 0 0 0 0 0 0 0 0 0 0 0 127 0" result="hardAlpha"/>
<feOffset dy="4"/>
<feGaussianBlur stdDeviation="2"/>
<feComposite in2="hardAlpha" operator="out"/>
<feColorMatrix type="matrix" values="0 0 0 0 0 0 0 0 0 0 0 0 0 0 0 0 0 0 0.25 0"/>
<feBlend mode="normal" in2="BackgroundImageFix" result="effect1_dropShadow_6_285"/>
<feColorMatrix in="SourceAlpha" type="matrix" values="0 0 0 0 0 0 0 0 0 0 0 0 0 0 0 0 0 0 127 0" result="hardAlpha"/>
<feOffset dy="4"/>
<feGaussianBlur stdDeviation="2"/>
<feComposite in2="hardAlpha" operator="out"/>
<feColorMatrix type="matrix" values="0 0 0 0 0 0 0 0 0 0 0 0 0 0 0 0 0 0 0.25 0"/>
<feBlend mode="normal" in2="effect1_dropShadow_6_285" result="effect2_dropShadow_6_285"/>
<feBlend mode="normal" in="SourceGraphic" in2="effect2_dropShadow_6_285" result="shape"/>
</filter>
<clipPath id="clip0_6_285">
<rect width="47" height="47" fill="white" transform="translate(4)"/>
</clipPath>
</defs>
</svg>
